<svg width="89" height="89" viewBox="0 0 89 89" fill="none" xmlns="http://www.w3.org/2000/svg">
<g filter="url(#filter0_d_32_246)">
<path d="M71.8301 68.7417C71.8301 69.8657 70.898 70.7978 69.774 70.7978H19.0561C17.9321 70.7978 17 69.8657 17 68.7417C17 67.6177 17.9321 66.6855 19.0561 66.6855H69.774C70.898 66.6855 71.8301 67.6177 71.8301 68.7417Z" fill="#327BD2"/>
<path d="M53.7127 22.8812L24.269 52.3249C23.1449 53.4489 21.3356 53.4489 20.2389 52.3249H20.2115C16.4008 48.4868 16.4008 42.291 20.2115 38.4803L39.8133 18.8786C43.6514 15.0405 49.8472 15.0405 53.6853 18.8786C54.8093 19.9478 54.8093 21.7846 53.7127 22.8812Z" fill="#327BD2"/>
<path d="M68.5992 33.7612L60.2377 25.3997C59.1136 24.2756 57.3042 24.2756 56.2076 25.3997L26.7639 54.8434C25.6399 55.94 25.6399 57.7494 26.7639 58.8734L35.1255 67.2624C38.9636 71.0731 45.1594 71.0731 48.9975 67.2624L68.5718 47.6606C72.4648 43.8225 72.4648 37.5993 68.5992 33.7612ZM46.5027 58.517L43.1855 61.8616C42.5001 62.547 41.3761 62.547 40.6633 61.8616C39.9779 61.1763 39.9779 60.0522 40.6633 59.3394L44.0079 55.9948C44.6659 55.3369 45.8173 55.3369 46.5027 55.9948C47.1881 56.6802 47.1881 57.859 46.5027 58.517ZM57.3865 47.6332L50.6972 54.3499C50.0118 55.0079 48.8878 55.0079 48.175 54.3499C47.4897 53.6645 47.4897 52.5405 48.175 51.8277L54.8917 45.111C55.5497 44.4531 56.7011 44.4531 57.3865 45.111C58.0719 45.8238 58.0719 46.9478 57.3865 47.6332Z" fill="#327BD2"/>
</g>
<defs>
<filter id="filter0_d_32_246" x="0" y="0" width="88.8301" height="88.7979" filterUnits="userSpaceOnUse" color-interpolation-filters="sRGB">
<feFlood flood-opacity="0" result="BackgroundImageFix"/>
<feColorMatrix in="SourceAlpha" type="matrix" values="0 0 0 0 0 0 0 0 0 0 0 0 0 0 0 0 0 0 127 0" result="hardAlpha"/>
<feOffset dy="1"/>
<feGaussianBlur stdDeviation="8.5"/>
<feComposite in2="hardAlpha" operator="out"/>
<feColorMatrix type="matrix" values="0 0 0 0 0.196078 0 0 0 0 0.482353 0 0 0 0 0.823529 0 0 0 0.25 0"/>
<feBlend mode="normal" in2="BackgroundImageFix" result="effect1_dropShadow_32_246"/>
<feBlend mode="normal" in="SourceGraphic" in2="effect1_dropShadow_32_246" result="shape"/>
</filter>
</defs>
</svg>
