<svg width="76" height="86" viewBox="0 0 76 86" fill="none" xmlns="http://www.w3.org/2000/svg">
<g filter="url(#filter0_d_32_245)">
<path fill-rule="evenodd" clip-rule="evenodd" d="M39.2649 16.0004C41.0467 15.9977 42.628 15.9953 44.0885 16.5945C45.5491 17.1937 46.6657 18.3029 47.9236 19.5528C50.4163 22.0293 52.9129 24.5021 55.4131 26.971C56.6749 28.217 57.795 29.3229 58.3998 30.7695C59.0049 32.2162 59.0025 33.7825 58.9996 35.5474C58.993 39.9354 58.9952 44.3236 58.9973 48.7116C58.9983 50.8649 58.9993 53.0182 58.9993 55.1715C58.9996 57.4764 58.9996 59.4622 58.7838 61.0524C58.5523 62.7566 58.0307 64.3905 56.6928 65.7157C55.3551 67.0406 53.7056 67.5575 51.9849 67.7865C50.3792 68.0002 48.3743 68.0002 46.0473 68H29.9521C27.6251 68.0002 25.6201 68.0002 24.0144 67.7865C22.2938 67.5575 20.6444 67.0406 19.3065 65.7157C17.9687 64.3905 17.447 62.7566 17.2156 61.0524C16.9998 59.4622 16.9999 57.4764 17 55.1715L17 29.0006L17 28.8294C16.9999 26.5246 16.9998 24.5387 17.2156 22.9484C17.447 21.2441 17.9687 19.6104 19.3065 18.2853C20.6444 16.9602 22.2938 16.4434 24.0144 16.2143C25.62 16.0005 27.625 16.0006 29.952 16.0007L32.849 16.0017C34.9875 16.0026 37.1261 16.0036 39.2649 16.0004ZM37.9997 26.4005C37.9997 27.8364 36.8245 29.0005 35.3747 29.0005H30.1248C28.6751 29.0005 27.4998 27.8364 27.4998 26.4005C27.4998 24.9646 28.6751 23.8005 30.1248 23.8005H35.3747C36.8245 23.8005 37.9997 24.9646 37.9997 26.4005ZM37.9997 36.8004C39.4494 36.8004 40.6246 35.6363 40.6246 34.2004C40.6246 32.7645 39.4494 31.6004 37.9997 31.6004H32.7498C31.3 31.6004 30.1248 32.7645 30.1248 34.2004C30.1248 35.6363 31.3 36.8004 32.7498 36.8004H37.9997ZM37.9997 42.0003C37.9997 43.4363 36.8245 44.6003 35.3747 44.6003H30.1248C28.6751 44.6003 27.4998 43.4363 27.4998 42.0003C27.4998 40.5644 28.6751 39.4003 30.1248 39.4003H35.3747C36.8245 39.4003 37.9997 40.5644 37.9997 42.0003ZM37.9997 52.4002C39.4494 52.4002 40.6246 51.2362 40.6246 49.8002C40.6246 48.3643 39.4494 47.2002 37.9997 47.2002H32.7498C31.3 47.2002 30.1248 48.3643 30.1248 49.8002C30.1248 51.2362 31.3 52.4002 32.7498 52.4002H37.9997Z" fill="#327BD2"/>
</g>
<defs>
<filter id="filter0_d_32_245" x="0" y="0" width="76" height="86" filterUnits="userSpaceOnUse" color-interpolation-filters="sRGB">
<feFlood flood-opacity="0" result="BackgroundImageFix"/>
<feColorMatrix in="SourceAlpha" type="matrix" values="0 0 0 0 0 0 0 0 0 0 0 0 0 0 0 0 0 0 127 0" result="hardAlpha"/>
<feOffset dy="1"/>
<feGaussianBlur stdDeviation="8.5"/>
<feComposite in2="hardAlpha" operator="out"/>
<feColorMatrix type="matrix" values="0 0 0 0 0.196078 0 0 0 0 0.482353 0 0 0 0 0.823529 0 0 0 0.25 0"/>
<feBlend mode="normal" in2="BackgroundImageFix" result="effect1_dropShadow_32_245"/>
<feBlend mode="normal" in="SourceGraphic" in2="effect1_dropShadow_32_245" result="shape"/>
</filter>
</defs>
</svg>
