<svg xmlns="http://www.w3.org/2000/svg" width="20" height="18" fill="none"><path fill="#fff" d="M.703 2.154c0-.594.21-1.084.628-1.47.418-.386.963-.579 1.632-.579.658 0 1.19.19 1.597.57.418.392.627.903.627 1.532a1.87 1.87 0 0 1-.61 1.425c-.418.392-.968.588-1.65.588H2.91c-.657 0-1.19-.196-1.596-.588-.407-.392-.61-.885-.61-1.478Zm.233 15.584V5.841h3.982v11.897H.936Zm6.189 0h3.982v-6.643c0-.416.048-.736.143-.962.168-.404.422-.745.762-1.024.341-.28.769-.419 1.283-.419 1.34 0 2.009.897 2.009 2.69v6.358h3.982v-6.821c0-1.758-.419-3.09-1.256-3.999-.837-.908-1.943-1.362-3.318-1.362-1.543 0-2.744.659-3.605 1.977v.035h-.018l.018-.035V5.84H7.125c.024.38.035 1.561.035 3.544s-.011 4.768-.035 8.353Z"/></svg>
