<svg width="88" height="88" viewBox="0 0 88 88" fill="none" xmlns="http://www.w3.org/2000/svg">
<g filter="url(#filter0_d_32_189)">
<path d="M35.7709 16.5283C25.4922 16.5283 17.0859 24.9374 17.0859 35.2133C17.0859 45.4891 25.4922 53.8982 35.7709 53.8982C46.0496 53.8982 54.4559 45.4891 54.4559 35.2133C54.4559 24.9374 46.0496 16.5283 35.7709 16.5283ZM35.7709 23.6442C42.1987 23.6442 47.3355 28.7803 47.3355 35.2133C47.3355 41.6462 42.1987 46.7823 35.7709 46.7823C29.3432 46.7823 24.2061 41.6462 24.2061 35.2133C24.2061 28.7803 29.3432 23.6442 35.7709 23.6442Z" fill="#327BD2"/>
<path d="M46.4504 42.3354C45.9829 42.3353 45.5199 42.4272 45.0879 42.6059C44.6559 42.7845 44.2633 43.0465 43.9326 43.3768C43.2648 44.0438 42.8894 44.9487 42.8892 45.8923C42.8889 46.836 43.2637 47.7411 43.9311 48.4085L64.3934 68.871C65.0609 69.5384 65.9663 69.9136 66.9105 69.9138C67.8547 69.9141 68.7603 69.5395 69.4282 68.8725C70.096 68.2055 70.4714 67.3006 70.4717 66.357C70.472 65.4134 70.0972 64.5083 69.4298 63.8408L48.9674 43.3785C48.3 42.711 47.3946 42.3358 46.4504 42.3354Z" fill="#327BD2"/>
<path d="M43.7684 36.5469C43.6515 36.5469 43.5358 36.5239 43.4278 36.4792C43.3198 36.4345 43.2217 36.369 43.139 36.2864C43.0564 36.2038 42.9908 36.1058 42.946 35.9978C42.9013 35.8899 42.8783 35.7742 42.8783 35.6574C42.8783 33.3029 41.7831 31.0845 39.9141 29.653C38.0451 28.2214 35.6185 27.742 33.3457 28.3553C33.1178 28.4168 32.8748 28.3853 32.6701 28.2677C32.4655 28.1502 32.3159 27.9562 32.2544 27.7285C32.2239 27.6157 32.216 27.498 32.231 27.3822C32.2461 27.2663 32.2838 27.1546 32.342 27.0533C32.4003 26.952 32.4779 26.8632 32.5705 26.7919C32.6631 26.7207 32.7689 26.6683 32.8817 26.6379C35.6882 25.8806 38.6894 26.4736 40.9969 28.241C43.3045 30.0085 44.6584 32.7511 44.6584 35.6574C44.6584 35.8933 44.5646 36.1195 44.3977 36.2863C44.2308 36.4531 44.0044 36.5469 43.7684 36.5469Z" fill="#327BD2"/>
</g>
<defs>
<filter id="filter0_d_32_189" x="0.0859375" y="0.52832" width="87.3857" height="87.3857" filterUnits="userSpaceOnUse" color-interpolation-filters="sRGB">
<feFlood flood-opacity="0" result="BackgroundImageFix"/>
<feColorMatrix in="SourceAlpha" type="matrix" values="0 0 0 0 0 0 0 0 0 0 0 0 0 0 0 0 0 0 127 0" result="hardAlpha"/>
<feOffset dy="1"/>
<feGaussianBlur stdDeviation="8.5"/>
<feComposite in2="hardAlpha" operator="out"/>
<feColorMatrix type="matrix" values="0 0 0 0 0.196078 0 0 0 0 0.482353 0 0 0 0 0.823529 0 0 0 0.25 0"/>
<feBlend mode="normal" in2="BackgroundImageFix" result="effect1_dropShadow_32_189"/>
<feBlend mode="normal" in="SourceGraphic" in2="effect1_dropShadow_32_189" result="shape"/>
</filter>
</defs>
</svg>
