<svg width="85" height="89" viewBox="0 0 85 89" fill="none" xmlns="http://www.w3.org/2000/svg">
<g filter="url(#filter0_d_32_244)">
<path fill-rule="evenodd" clip-rule="evenodd" d="M40.5271 16C36.7311 16 33.6537 19.1286 33.6537 22.9879C33.6537 23.5472 33.2744 24.2934 32.3676 24.794C32.0886 24.9481 31.8134 25.1083 31.5423 25.2745C30.638 25.8287 29.789 25.7931 29.2906 25.5032C25.9803 23.5776 21.7618 24.7267 19.842 28.077L17.9365 31.4021C16.013 34.7589 17.1482 39.0662 20.4649 40.9953C20.9457 41.2752 21.3979 41.9867 21.3759 43.0452C21.3727 43.1964 21.3711 43.3482 21.3711 43.5C21.3711 43.6521 21.3727 43.8036 21.3759 43.9548C21.3979 45.0136 20.9458 45.725 20.4649 46.0047C17.1483 47.9338 16.0131 52.2411 17.9366 55.5978L19.8421 58.9231C21.762 62.2734 25.9803 63.4224 29.2907 61.4968C29.7891 61.207 30.638 61.1712 31.5423 61.7256C31.8134 61.8917 32.0886 62.0521 32.3676 62.2061C33.2744 62.7066 33.6537 63.4529 33.6537 64.0122C33.6537 67.8713 36.7311 71 40.5271 71H44.4728C48.269 71 51.3462 67.8713 51.3462 64.0122C51.3462 63.4529 51.7257 62.7066 52.6324 62.2061C52.9113 62.0521 53.1866 61.8917 53.4577 61.7256C54.3619 61.1712 55.2108 61.207 55.7093 61.4968C59.0196 63.4224 63.2381 62.2734 65.1578 58.9231L67.0634 55.5978C68.9869 52.2411 67.8517 47.9338 64.5351 46.0047C64.0541 45.725 63.6021 45.0136 63.6241 43.9548C63.6273 43.8036 63.6289 43.6518 63.6289 43.5C63.6289 43.3482 63.6273 43.1964 63.6241 43.0452C63.6021 41.9864 64.0541 41.275 64.5351 40.9953C67.8519 39.0662 68.9869 34.7589 67.0634 31.4021L65.158 28.077C63.2381 24.7266 59.0196 23.5775 55.7093 25.5031C55.211 25.7931 54.3619 25.8287 53.4577 25.2744C53.1866 25.1082 52.9115 24.9481 52.6324 24.794C51.7257 24.2934 51.3462 23.5472 51.3462 22.9879C51.3462 19.1286 48.269 16 44.4728 16H40.5271ZM42.4998 35.25C38.0179 35.25 34.3849 38.9435 34.3849 43.5C34.3849 48.0565 38.0179 51.75 42.4998 51.75C46.9817 51.75 50.6147 48.0565 50.6147 43.5C50.6147 38.9435 46.9817 35.25 42.4998 35.25Z" fill="#327BD2"/>
</g>
<defs>
<filter id="filter0_d_32_244" x="0" y="0" width="85" height="89" filterUnits="userSpaceOnUse" color-interpolation-filters="sRGB">
<feFlood flood-opacity="0" result="BackgroundImageFix"/>
<feColorMatrix in="SourceAlpha" type="matrix" values="0 0 0 0 0 0 0 0 0 0 0 0 0 0 0 0 0 0 127 0" result="hardAlpha"/>
<feOffset dy="1"/>
<feGaussianBlur stdDeviation="8.5"/>
<feComposite in2="hardAlpha" operator="out"/>
<feColorMatrix type="matrix" values="0 0 0 0 0.196078 0 0 0 0 0.482353 0 0 0 0 0.823529 0 0 0 0.25 0"/>
<feBlend mode="normal" in2="BackgroundImageFix" result="effect1_dropShadow_32_244"/>
<feBlend mode="normal" in="SourceGraphic" in2="effect1_dropShadow_32_244" result="shape"/>
</filter>
</defs>
</svg>
