<svg xmlns="http://www.w3.org/2000/svg" width="24" height="18" fill="none"><path fill="#fff" d="M23.6 2.193c-.855.354-1.767.589-2.718.703.978-.551 1.724-1.417 2.075-2.46a9.778 9.778 0 0 1-2.99 1.077A4.863 4.863 0 0 0 16.52.105c-2.611 0-4.714 2-4.714 4.45 0 .353.032.693.11 1.015C7.995 5.39 4.526 3.617 2.195.917a4.287 4.287 0 0 0-.646 2.248c0 1.541.841 2.907 2.095 3.698a4.875 4.875 0 0 1-2.13-.548v.049c0 2.162 1.634 3.958 3.778 4.371a4.976 4.976 0 0 1-1.237.147 4.42 4.42 0 0 1-.893-.076c.612 1.762 2.346 3.057 4.408 3.1a9.846 9.846 0 0 1-5.848 1.897c-.387 0-.758-.016-1.13-.061 2.09 1.27 4.566 1.996 7.237 1.996 8.68 0 13.424-6.781 13.424-12.66 0-.197-.007-.387-.017-.575a9.132 9.132 0 0 0 2.364-2.31Z"/></svg>
